<?xml version="1.0" encoding="UTF-8" standalone="no"?>
<svg xmlns:rdf="http://www.w3.org/1999/02/22-rdf-syntax-ns#" xmlns="http://www.w3.org/2000/svg" xml:space="preserve" height="512" width="512" version="1.1" xmlns:cc="http://creativecommons.org/ns#" xmlns:xlink="http://www.w3.org/1999/xlink" viewBox="0 0 512 512" xmlns:dc="http://purl.org/dc/elements/1.1/">
    <defs>
        <linearGradient id="a" y2="118.58" gradientUnits="userSpaceOnUse" x2="372.65" gradientTransform="matrix(1.0452 0 0 1.0402 -10.988 -7.6077)" y1="388.26" x1="138.23">
            <stop stop-color="#fbfbfb" stop-opacity="0.93" offset="0"/>
            <stop stop-color="#acafb1" stop-opacity=".95850" offset=".40780"/>
            <stop stop-color="#6a6b6e" stop-opacity=".98710" offset=".81550"/>
            <stop stop-color="#4d4d4f" offset="1"/>
        </linearGradient>
    </defs>
    <path d="M375,430.29c0,6.74-5.59,12.21-12.47,12.21h-213.06c-6.895,0-12.475-5.47-12.475-12.21v-348.58c0-6.7419,5.58-12.208,12.47-12.208h213.06c6.885,0,12.475,5.466,12.475,12.208v348.59z" stroke-opacity="1" stroke-miterlimit="10" fill="#FFF"/>
    <path d="m370.53 426.09c0 6.5789-5.3743 11.913-12.003 11.913h-205c-6.6296 0-12.003-5.334-12.003-11.913v-340.18c0-6.5789 5.3733-11.913 12.003-11.913h205c6.6286 0 12.003 5.334 12.003 11.913v340.18z" stroke="#000" stroke-miterlimit="10" stroke-width=".99648"/>
    <path d="m355.48 410.5c0 6.8934-5.6159 12.482-12.543 12.482h-173.88c-6.9266 0-12.543-5.589-12.543-12.482v-309c0-6.8934 5.6159-12.482 12.543-12.482h173.87c6.9266 0 12.543 5.589 12.543 12.482v308.99z" stroke="#000" stroke-miterlimit="10" stroke-width="1.0427" fill="url(#a)"/>
    <g stroke="#20bd25" stroke-width="16" stroke-miterlimit="10" fill="none">
        <path d="m383 124.96c22.244 5.2943 61.454 60.509 62.072 124.42 0.43205 44.819-31.033 110.3-62.072 137.66"/>
        <path d="m126.08 124.96c-22.25 5.3-61.458 60.51-62.076 124.42-0.432 44.82 31.033 110.3 62.076 137.66"/>
        <path d="m413 74.988c31.701 7.3131 87.582 83.584 88.464 171.87 0.62 61.91-44.22 152.36-88.46 190.15"/>
        <path d="m100.47 74.988c-31.701 7.313-87.582 83.582-88.464 171.87-0.615 61.91 44.23 152.36 88.464 190.15"/>
    </g>
</svg>
