<?xml version="1.0" encoding="UTF-8" standalone="no"?>
<svg xmlns:rdf="http://www.w3.org/1999/02/22-rdf-syntax-ns#" xmlns="http://www.w3.org/2000/svg" xml:space="preserve" height="512" width="512" version="1.1" xmlns:cc="http://creativecommons.org/ns#" xmlns:xlink="http://www.w3.org/1999/xlink" viewBox="0 0 512 512" xmlns:dc="http://purl.org/dc/elements/1.1/">
    <defs>
        <linearGradient id="a" y2="118.58" gradientUnits="userSpaceOnUse" x2="372.65" gradientTransform="matrix(1.0452 0 0 1.0402 -10.988 -7.6077)" y1="388.26" x1="138.23">
            <stop stop-color="#fbfbfb" stop-opacity="0.93" offset="0"/>
            <stop stop-color="#acafb1" stop-opacity=".95850" offset=".40780"/>
            <stop stop-color="#6a6b6e" stop-opacity=".98710" offset=".81550"/>
            <stop stop-color="#4d4d4f" offset="1"/>
        </linearGradient>
    </defs>
    <path d="m370.53 426.09c0 6.5789-5.3743 11.913-12.003 11.913h-205c-6.6296 0-12.003-5.334-12.003-11.913v-340.18c0-6.5789 5.3733-11.913 12.003-11.913h205c6.6286 0 12.003 5.334 12.003 11.913v340.18z" stroke="#000" stroke-miterlimit="10" stroke-width=".99648"/>
    <path d="m355.48 410.5c0 6.8934-5.6159 12.482-12.543 12.482h-173.88c-6.9266 0-12.543-5.589-12.543-12.482v-309c0-6.8934 5.6159-12.482 12.543-12.482h173.87c6.9266 0 12.543 5.589 12.543 12.482v308.99z" stroke="#000" stroke-miterlimit="10" stroke-width="1.0427" fill="url(#a)"/>
</svg>
